<mxfile host="app.diagrams.net" modified="2023-11-05T05:33:17.699Z" agent="Mozilla/5.0 (Windows NT 10.0; Win64; x64) AppleWebKit/537.36 (KHTML, like Gecko) Chrome/117.0.0.0 Safari/537.36 OPR/103.0.0.0" version="22.0.8" etag="voyhYXK9rlj5wumSyrwd" type="github">
  <diagram name="Page-1" id="kQJ0Zg9DxH9JWTYContX">
    <mxGraphModel>
      <root>
        <mxCell id="0" />
        <mxCell id="1" parent="0" />
      </root>
    </mxGraphModel>
  </diagram>
</mxfile>
